<svg width="150" height="62" viewBox="0 0 150 62" fill="none" xmlns="http://www.w3.org/2000/svg">
<path d="M23.3961 15.5528V25.1196H16.4199V32.1313H6.90145V25.1196H0V15.5528H6.90145V8.61633H16.4199V15.5528H23.3961Z" fill="#FE8C68"/>
<path d="M25.9844 32.9351C25.9844 25.1231 26.6386 22.5642 29.6183 18.8404C32.598 15.0415 37.2488 12.7794 42.1164 12.7794C51.0517 12.7794 58.1737 19.9376 58.1737 28.9182C58.1737 37.8989 51.1264 45.1284 42.7707 45.1284C40.1537 45.1284 37.903 44.4709 34.8523 42.8664V62H25.9881V32.9351H25.9844ZM34.8486 28.8468C34.8486 33.0816 38.0451 36.3695 42.0416 36.3695C46.0382 36.3695 49.3057 33.0854 49.3057 28.9934C49.3057 24.9014 46.0382 21.4707 42.1127 21.4707C38.1872 21.4707 34.8486 24.83 34.8486 28.8468Z" fill="white"/>
<path d="M62.9609 44.6927V28.7004C62.9609 23.808 63.1778 22.3463 64.2694 20.1557C66.5949 15.5564 70.5914 13.3657 76.547 13.3657C76.7638 13.3657 77.3471 13.3657 78.0013 13.4371V21.6888H76.9096C72.9131 21.7602 71.8251 22.9288 71.8251 26.7277V44.6927H62.9609Z" fill="white"/>
<path d="M103.795 44.6928V42.1376C100.815 44.1818 98.3437 45.0573 95.5098 45.0573C87.4457 45.0573 80.3984 37.6097 80.3984 29.065C80.3984 20.5203 87.6625 13.0013 96.5267 13.0013C101.611 13.0013 106.408 15.41 109.459 19.502C111.855 22.7147 112.726 25.7095 112.726 30.9663V44.6965H103.791L103.795 44.6928ZM89.3374 29.065C89.3374 33.2284 92.6049 36.5877 96.6015 36.5877C100.598 36.5877 103.72 33.2284 103.72 29.2116C103.72 25.1947 100.452 21.6889 96.5267 21.6889C92.6012 21.6889 89.3337 24.973 89.3337 29.065H89.3374Z" fill="white"/>
<path d="M115.271 21.9819V13.3658H120.647V2.63037H129.583V13.3658H136.05V21.9819H129.583V28.1894C129.366 34.908 130.529 36.2945 136.05 36.3697V44.7679H134.305C128.203 44.7679 123.623 41.9196 121.59 36.8807C120.789 34.9832 120.718 33.9611 120.644 27.3891V21.9857H115.268L115.271 21.9819Z" fill="#FE8C68"/>
<path d="M149.999 4.96752C149.999 7.66922 147.673 10.0064 144.985 10.0064C142.297 10.0064 140.043 7.74438 140.043 4.96752C140.043 2.19067 142.223 0 144.985 0C147.748 0 149.999 2.19067 149.999 4.96752ZM149.707 32.1311H140.843V13.362H149.707V32.1311Z" fill="#FE8C68"/>
</svg>
